# xmcd
#
# Track frame offsets: 
#        150
#        12927
#        26397
#        37580
#        57000
#        75830
#        90537
#        103452
#        107340
#        118560
#        132652
#        144312
#        154140
#
# Disc length: 2265 seconds
#
# Revision: 0
# Processed by: cddbd v1.5.2PL0 Copyright (c) Steve Scherf et al.
# Submitted via: ExactAudioCopy v0.99pb4
#
DISCID=9208d70d
DTITLE=Dan Hicks - Last Train to Hicksville
DYEAR=1973
DGENRE=Rockabilly
TTITLE0=Cowboy's Dream No. 19
TTITLE1=Lonely Madman
TTITLE2=My Old Timey Baby
TTITLE3=Vivando
TTITLE4=Success
TTITLE5=Cheaters Don't Win
TTITLE6=Payday Blues
TTITLE7=I Asked My Doctor
TTITLE8=Sure Beats Me
TTITLE9=The Euphonius Whale
TTITLE10=Sweetheart
TTITLE11='Long Come A Viper
TTITLE12=It's Not MY Time To Go
EXTD=
EXTT0=
EXTT1=
EXTT2=
EXTT3=
EXTT4=
EXTT5=
EXTT6=
EXTT7=
EXTT8=
EXTT9=
EXTT10=
EXTT11=
EXTT12=
PLAYORDER=
